<?xml version="1.0" standalone="no"?>
<!DOCTYPE svg PUBLIC "-//W3C//DTD SVG 20010904//EN"
 "http://www.w3.org/TR/2001/REC-SVG-20010904/DTD/svg10.dtd">
<svg version="1.0" xmlns="http://www.w3.org/2000/svg"
 width="660.000000pt" height="660.000000pt" viewBox="0 0 660.000000 660.000000"
 preserveAspectRatio="xMidYMid meet">
<metadata>
Created by potrace 1.16, written by Peter Selinger 2001-2019
</metadata>
<g transform="translate(0.000000,660.000000) scale(0.100000,-0.100000)"
fill="#000000" stroke="none">
<path d="M3023 5522 c-34 -9 -70 -26 -78 -37 -9 -11 -14 -14 -10 -7 9 18 -9
15 -38 -8 -14 -11 -33 -20 -43 -20 -16 0 -103 -36 -151 -63 -30 -17 -166 -148
-159 -154 2 -3 15 6 28 20 18 19 28 23 46 16 12 -5 22 -13 22 -19 0 -5 6 -10
14 -10 11 0 13 9 9 35 -6 35 -5 35 20 26 29 -11 50 5 26 20 -10 6 -11 9 -1 9
6 0 12 7 12 15 0 8 5 15 10 15 13 0 13 -17 0 -25 -6 -4 -4 -15 6 -30 9 -14 20
-22 25 -19 10 6 13 -15 10 -58 -3 -32 13 -36 46 -13 22 15 22 45 1 45 -14 0
-57 47 -50 54 3 3 -2 6 -11 6 -10 0 -17 4 -17 9 0 14 36 23 59 16 14 -4 20 0
23 20 3 14 3 23 0 20 -9 -9 -31 16 -26 30 8 20 63 10 81 -14 14 -21 40 -30 27
-10 -3 6 -1 15 6 19 7 4 9 13 6 19 -11 17 -26 13 -26 -6 0 -14 -3 -14 -12 -5
-10 10 -10 15 2 22 20 13 57 13 65 0 3 -5 11 -10 17 -10 6 0 5 7 -3 18 -7 9
-10 14 -5 10 5 -4 17 -3 28 3 23 12 72 3 63 -11 -3 -6 -1 -10 4 -10 6 0 14 0
19 0 11 0 9 24 -3 32 -5 4 6 8 25 9 29 0 31 2 15 9 -11 5 -33 9 -49 9 -33 1
-28 13 7 17 12 1 22 3 22 4 0 1 7 3 17 5 9 2 18 -5 21 -16 3 -10 11 -19 17
-19 9 0 9 4 -1 17 -13 15 -12 15 11 2 36 -19 103 -22 96 -3 -7 18 4 17 28 -1
23 -17 40 -20 31 -5 -14 22 19 8 44 -19 l28 -30 28 25 c32 27 32 28 -75 44
-131 20 -239 20 -307 2z m-376 -224 c-3 -8 -6 -5 -6 6 -1 11 2 17 5 13 3 -3 4
-12 1 -19z"/>
<path d="M3450 5481 c0 -18 17 -30 49 -37 8 -1 18 -8 22 -16 4 -7 12 -9 16 -4
8 7 -64 76 -79 76 -5 0 -8 -9 -8 -19z m35 -12 c11 -17 -1 -21 -15 -4 -8 9 -8
15 -2 15 6 0 14 -5 17 -11z"/>
<path d="M3333 5390 c1 -24 7 -36 20 -38 10 -2 17 3 17 12 0 9 -4 16 -8 16 -5
0 -14 10 -20 23 -11 20 -11 19 -9 -13z"/>
<path d="M3421 5368 c18 -36 23 -39 31 -24 5 10 7 20 4 23 -3 4 -6 0 -6 -8 -1
-8 -7 1 -15 19 -8 17 -19 32 -25 32 -6 0 -1 -19 11 -42z"/>
<path d="M3080 5366 c0 -21 26 -40 33 -23 3 7 -4 19 -14 25 -15 10 -19 9 -19
-2z"/>
<path d="M3620 5330 c0 -5 -7 -10 -15 -10 -8 0 -15 -4 -15 -10 0 -5 6 -10 14
-10 8 0 17 -6 19 -12 3 -7 6 2 6 20 1 17 -1 32 -4 32 -3 0 -5 -4 -5 -10z"/>
<path d="M2860 5270 c0 -5 5 -10 11 -10 5 0 7 5 4 10 -3 6 -8 10 -11 10 -2 0
-4 -4 -4 -10z"/>
<path d="M3694 5269 c-7 -13 5 -31 17 -24 5 4 9 -1 9 -9 0 -9 7 -16 15 -16 9
0 15 9 15 24 0 17 -7 25 -25 28 -14 3 -28 1 -31 -3z"/>
<path d="M3791 5204 c-1 -13 8 -25 24 -32 32 -15 35 -15 35 -1 0 5 -4 7 -10 4
-5 -3 -10 -1 -10 4 0 6 -6 11 -14 11 -8 0 -17 8 -19 18 -4 14 -5 13 -6 -4z"/>
<path d="M2445 5170 c-3 -5 -1 -10 4 -10 6 0 11 5 11 10 0 6 -2 10 -4 10 -3 0
-8 -4 -11 -10z"/>
<path d="M2671 5167 c-6 -6 -11 -20 -12 -31 0 -12 -3 -16 -5 -9 -4 8 -11 7
-24 -4 -10 -9 -17 -20 -14 -25 8 -12 24 -10 22 4 -2 7 2 13 7 13 19 2 75 40
72 49 -5 14 -33 16 -46 3z"/>
<path d="M3876 5135 c19 -29 37 -33 32 -7 -2 9 -10 16 -16 15 -7 -2 -12 2 -12
7 0 6 -5 10 -10 10 -6 0 -3 -11 6 -25z"/>
<path d="M2400 5125 c-7 -8 -8 -15 -2 -15 5 0 15 7 22 15 7 8 8 15 2 15 -5 0
-15 -7 -22 -15z"/>
<path d="M3930 5100 c0 -19 11 -26 23 -14 8 8 -3 34 -14 34 -5 0 -9 -9 -9 -20z"/>
<path d="M2577 5083 c-11 -3 -16 -10 -13 -20 3 -8 6 -17 6 -19 0 -2 7 -4 16
-4 11 0 15 6 11 20 -3 10 0 21 7 24 14 6 -3 5 -27 -1z"/>
<path d="M2420 5040 c0 -6 7 -10 15 -10 8 0 15 2 15 4 0 2 -7 6 -15 10 -8 3
-15 1 -15 -4z"/>
<path d="M2462 5041 c2 -7 7 -12 11 -12 12 1 9 15 -3 20 -7 2 -11 -2 -8 -8z"/>
<path d="M2521 5016 c-6 -7 -9 -21 -5 -30 4 -11 -2 -19 -22 -26 -18 -7 -24
-14 -17 -21 11 -11 43 -2 43 14 0 6 9 21 21 33 12 12 18 27 14 33 -9 15 -20
14 -34 -3z"/>
<path d="M4035 5000 c-3 -5 -1 -10 4 -10 6 0 11 5 11 10 0 6 -2 10 -4 10 -3 0
-8 -4 -11 -10z"/>
<path d="M4048 4960 c2 -8 8 -30 14 -47 9 -34 22 -40 48 -23 13 9 13 10 0 10
-12 0 -13 2 -1 9 7 5 10 14 7 20 -4 6 -12 9 -17 6 -5 -4 -9 1 -9 9 0 9 -8 16
-19 16 -11 0 -21 3 -24 8 -2 4 -2 0 1 -8z"/>
<path d="M2396 4941 c-4 -5 -2 -12 3 -15 5 -4 12 -2 15 3 4 5 2 12 -3 15 -5 4
-12 2 -15 -3z"/>
<path d="M2345 4930 c-3 -5 -2 -10 4 -10 5 0 13 5 16 10 3 6 2 10 -4 10 -5 0
-13 -4 -16 -10z"/>
<path d="M4148 4913 c7 -3 16 -2 19 1 4 3 -2 6 -13 5 -11 0 -14 -3 -6 -6z"/>
<path d="M2468 4903 c7 -3 16 -2 19 1 4 3 -2 6 -13 5 -11 0 -14 -3 -6 -6z"/>
<path d="M2298 4869 c-10 -5 -18 -14 -18 -19 0 -6 8 -10 18 -10 11 -1 6 -6
-13 -15 l-30 -13 38 -1 c21 -1 47 4 57 9 15 8 21 6 29 -7 6 -10 11 -13 11 -6
0 6 -7 19 -17 28 -12 13 -13 19 -4 25 29 17 -42 27 -71 9z"/>
<path d="M2425 4860 c3 -5 10 -10 16 -10 5 0 9 5 9 10 0 6 -7 10 -16 10 -8 0
-12 -4 -9 -10z"/>
<path d="M4270 4840 c0 -5 9 -8 20 -7 21 1 18 10 -5 13 -8 1 -15 -2 -15 -6z"/>
<path d="M2405 4830 c-3 -5 -2 -10 4 -10 5 0 13 5 16 10 3 6 2 10 -4 10 -5 0
-13 -4 -16 -10z"/>
<path d="M4040 4804 c0 -8 -4 -12 -10 -9 -5 3 -10 -3 -10 -14 0 -12 -7 -21
-15 -21 -14 0 -17 -9 -19 -57 -1 -10 6 -18 14 -18 8 0 20 -3 25 -7 6 -4 17 -3
25 3 10 6 11 9 3 9 -7 0 -13 5 -13 10 0 6 9 10 20 10 18 0 25 11 21 33 -1 4
-2 18 -3 31 -3 28 -38 56 -38 30z"/>
<path d="M2198 4793 c7 -3 16 -2 19 1 4 3 -2 6 -13 5 -11 0 -14 -3 -6 -6z"/>
<path d="M2276 4792 c-14 -14 -3 -20 34 -18 59 3 72 23 16 23 -24 1 -47 -1
-50 -5z"/>
<path d="M2158 4783 c7 -3 16 -2 19 1 4 3 -2 6 -13 5 -11 0 -14 -3 -6 -6z"/>
<path d="M2250 4744 c0 -8 5 -12 10 -9 6 3 10 10 10 16 0 5 -4 9 -10 9 -5 0
-10 -7 -10 -16z"/>
<path d="M2364 4750 c-23 -9 -39 -28 -32 -36 9 -8 79 27 73 36 -7 12 -13 12
-41 0z"/>
<path d="M4280 4729 c0 -5 5 -7 10 -4 6 3 10 8 10 11 0 2 -4 4 -10 4 -5 0 -10
-5 -10 -11z"/>
<path d="M2255 4651 c-3 -5 -1 -12 5 -16 5 -3 10 1 10 9 0 18 -6 21 -15 7z"/>
<path d="M4260 4650 c0 -5 7 -10 15 -10 8 0 15 -4 15 -9 0 -5 8 -7 18 -4 10 2
34 -9 56 -26 42 -33 66 -43 29 -12 -13 11 -23 24 -23 30 0 15 -54 41 -85 41
-14 0 -25 -4 -25 -10z"/>
<path d="M2300 4639 c0 -5 5 -7 10 -4 6 3 10 8 10 11 0 2 -4 4 -10 4 -5 0 -10
-5 -10 -11z"/>
<path d="M4052 4628 c6 -18 28 -21 28 -4 0 9 -7 16 -16 16 -9 0 -14 -5 -12
-12z"/>
<path d="M4025 4620 c-8 -14 24 -45 34 -34 4 5 0 17 -10 26 -11 10 -21 13 -24
8z"/>
<path d="M4315 4590 c3 -5 10 -10 16 -10 5 0 9 5 9 10 0 6 -7 10 -16 10 -8 0
-12 -4 -9 -10z"/>
<path d="M3528 4558 c-26 -13 -38 -27 -38 -41 0 -12 -7 -31 -15 -41 -8 -11
-15 -16 -15 -12 0 4 -7 0 -16 -9 -9 -9 -23 -14 -30 -11 -9 3 -14 -2 -14 -13 0
-38 -12 -51 -44 -51 -18 0 -36 -3 -40 -7 -11 -11 -80 -3 -88 10 -4 6 -3 14 2
17 5 3 -11 16 -35 29 -31 16 -42 28 -38 39 4 9 2 13 -5 9 -6 -4 -13 1 -15 10
-3 11 -5 6 -6 -11 -1 -28 -2 -28 -20 -12 -18 17 -19 17 -24 -1 -4 -17 -5 -17
-6 0 -2 28 -52 89 -65 79 -6 -5 -27 -12 -48 -15 -20 -3 -54 -17 -76 -32 -26
-17 -48 -25 -60 -20 -11 3 -23 2 -26 -3 -3 -5 -39 -9 -81 -8 -45 1 -69 -2 -60
-7 42 -23 8 -39 -127 -62 -24 -4 -42 -14 -49 -27 -26 -49 -106 -131 -119 -123
-6 3 -10 2 -10 -4 0 -6 -7 -8 -15 -5 -12 5 -15 -4 -17 -42 -1 -27 -2 -66 -4
-86 -2 -44 6 -46 52 -17 50 30 64 13 20 -26 -41 -36 -44 -45 -16 -45 11 0 20
6 20 13 0 8 9 22 20 32 11 10 20 26 20 37 0 25 56 26 64 0 4 -13 15 -18 35
-16 24 2 34 -5 55 -37 14 -21 27 -52 28 -69 2 -21 13 -40 33 -57 29 -25 33
-26 140 -20 116 6 194 22 270 56 25 11 45 19 45 17 0 -18 -28 -74 -42 -86 -16
-13 -17 -19 -7 -47 6 -18 15 -33 20 -33 5 0 9 -8 9 -19 0 -12 13 -25 35 -35
19 -9 35 -22 35 -27 0 -7 23 -9 59 -7 61 3 79 -5 73 -34 -2 -10 1 -18 7 -18 6
0 11 7 11 15 0 26 37 17 44 -10 4 -14 11 -23 17 -19 6 3 8 8 5 11 -3 3 -1 15
5 25 9 17 18 19 50 15 22 -3 46 -10 54 -17 15 -12 9 -44 -6 -34 -5 3 -9 1 -9
-4 0 -25 52 -28 75 -5 14 14 18 14 26 2 8 -12 10 -12 19 1 5 8 10 26 10 40 0
15 6 32 13 39 10 10 7 16 -12 32 -22 18 -30 55 -31 147 0 12 -7 25 -15 28 -17
7 -20 40 -5 49 6 4 16 2 23 -3 15 -13 152 -39 277 -52 140 -16 160 -19 196
-32 28 -10 31 -14 22 -31 -7 -13 -7 -22 0 -26 6 -4 0 -17 -14 -34 -21 -25 -27
-26 -26 -7 0 3 -10 5 -22 5 -18 0 -21 -5 -18 -22 3 -16 0 -23 -12 -23 -12 0
-16 -10 -16 -40 0 -27 -4 -40 -14 -40 -7 0 -16 -9 -19 -20 -3 -11 -1 -20 4
-20 5 0 9 -12 9 -26 0 -19 -4 -25 -15 -20 -20 7 -32 -23 -14 -35 11 -7 9 -9
-6 -9 -29 0 -42 11 -58 49 -8 18 -17 29 -20 24 -7 -11 11 -84 24 -98 5 -5 9
-22 9 -37 0 -18 10 -37 30 -55 29 -26 30 -27 11 -44 -18 -17 -36 -86 -32 -121
1 -10 -5 -33 -15 -53 -9 -19 -14 -41 -11 -49 3 -8 -1 -22 -8 -33 -8 -10 -15
-26 -15 -36 0 -10 -5 -28 -12 -40 -12 -22 -12 -21 -18 8 -6 36 -26 35 -22 0 2
-14 -1 -25 -7 -25 -6 0 -8 8 -6 18 3 9 -2 2 -10 -17 -9 -18 -23 -40 -31 -48
-7 -8 -14 -19 -14 -24 0 -5 -7 -9 -16 -9 -9 0 -18 -9 -21 -20 -7 -25 -44 -28
-39 -2 6 33 25 70 38 75 10 4 10 8 -2 16 -9 6 -16 7 -18 1 -2 -6 -13 -10 -24
-10 -13 0 -18 -5 -15 -14 4 -10 1 -13 -9 -9 -9 3 -14 -1 -14 -14 0 -21 -34
-63 -52 -63 -5 0 -8 -8 -6 -18 6 -20 5 -20 -62 -25 -67 -5 -67 -5 -73 -28 -11
-40 -24 -10 -17 38 5 26 6 50 4 52 -2 2 -28 -1 -58 -8 -41 -9 -53 -16 -49 -27
7 -18 -11 -18 -30 1 -11 10 -25 13 -46 9 -31 -7 -44 -34 -16 -34 8 0 15 -6 15
-14 0 -20 -42 -28 -60 -11 -9 8 -22 15 -29 15 -7 0 -9 5 -5 11 4 8 0 9 -15 4
-16 -5 -21 -2 -21 10 0 12 -5 15 -22 9 -20 -6 -21 -5 -9 10 8 9 11 19 7 23 -3
3 -6 1 -6 -5 0 -6 -9 -10 -20 -9 -11 1 -18 7 -16 13 3 7 -6 14 -20 17 -13 2
-24 -1 -25 -7 0 -6 -4 -2 -8 9 -5 11 -14 20 -21 20 -14 0 -17 5 -48 72 -11 24
-15 46 -10 51 10 10 -1 72 -14 72 -5 0 -6 4 -3 10 3 5 -5 15 -19 22 -14 6 -26
15 -26 21 0 5 -7 6 -15 3 -11 -4 -17 3 -22 24 -3 17 -12 30 -19 30 -19 0 -18
15 2 34 14 15 13 16 -6 16 -16 0 -20 4 -16 15 8 23 -47 77 -70 69 -12 -4 -8 3
11 20 17 14 35 26 40 26 6 0 2 5 -8 11 -15 9 -17 18 -12 47 5 34 4 37 -18 38
-27 2 -55 -35 -43 -55 11 -17 -20 -13 -34 4 -10 12 -10 15 1 15 8 1 1 11 -15
24 -21 17 -27 29 -22 43 4 12 0 10 -14 -7 l-20 -25 10 29 c9 24 8 27 -6 22
-12 -4 -15 0 -13 17 2 12 0 28 -5 36 -5 8 -4 16 2 20 7 4 8 12 2 21 -6 8 -9
26 -9 40 0 23 1 23 9 5 6 -17 9 -15 15 16 9 48 3 84 -14 84 -8 0 -16 7 -18 15
-4 12 -3 12 5 2 6 -10 10 4 11 42 0 30 -3 58 -9 61 -11 7 -22 -31 -19 -66 4
-49 0 -69 -16 -63 -8 4 -17 -1 -21 -10 -3 -9 -10 -16 -15 -16 -4 0 -6 7 -2 16
4 11 2 15 -6 13 -11 -4 -14 -54 -20 -280 -1 -31 -5 -37 -28 -42 -18 -3 -32 2
-47 17 -41 43 -64 74 -69 93 -3 10 -5 0 -6 -22 0 -34 4 -43 34 -65 18 -14 36
-33 38 -42 3 -11 15 -18 29 -18 34 0 45 -11 53 -52 10 -51 -1 -88 -25 -88 -10
0 -22 5 -25 10 -5 8 -11 7 -20 0 -11 -9 -11 -17 -3 -36 14 -29 54 -42 80 -25
11 7 21 11 23 9 1 -2 10 -35 19 -74 8 -39 40 -145 71 -234 30 -90 54 -164 52
-166 -1 -1 -74 -20 -162 -42 -141 -36 -222 -64 -369 -127 -33 -14 -176 -93
-237 -130 -153 -93 -177 -102 -374 -134 -192 -31 -299 -57 -357 -85 -17 -9
-39 -16 -49 -16 -51 0 -102 -85 -129 -214 -7 -33 -23 -89 -37 -125 -24 -64
-24 -75 -8 -156 6 -25 0 -39 -33 -80 -56 -71 -77 -118 -97 -215 -9 -47 -23
-96 -30 -110 -13 -27 -78 -208 -89 -250 -44 -164 -60 -219 -77 -251 -21 -43
-24 -86 -8 -143 l11 -39 -56 -52 c-66 -60 -73 -96 -31 -151 l26 -33 -38 -57
c-35 -53 -38 -63 -42 -143 -2 -64 -8 -93 -22 -113 -23 -32 -69 -128 -69 -145
0 -10 250 -13 1215 -13 1150 0 1215 1 1216 18 6 204 14 979 14 1369 0 281 3
506 8 500 5 -8 6 -5 3 8 -4 19 -10 45 -21 105 -3 14 -12 79 -20 145 -27 207
-35 266 -66 429 -16 87 -29 174 -29 193 l0 34 43 -53 c57 -70 180 -152 533
-354 58 -33 158 -67 241 -81 44 -8 55 -6 75 9 13 10 16 16 7 12 -10 -3 -36 0
-59 6 l-43 12 29 19 c16 10 45 22 64 25 19 4 47 13 62 20 15 8 37 14 49 14 17
0 12 -8 -30 -41 -51 -40 -58 -49 -43 -49 14 0 269 194 368 281 120 105 166
154 183 197 9 21 17 30 24 23 12 -12 13 -315 1 -406 -5 -42 -6 -102 0 -150 16
-147 -22 -392 -78 -491 -31 -55 -31 -58 -8 -45 24 13 102 217 102 265 0 9 4
16 9 16 4 0 11 -26 15 -57 34 -314 46 -412 50 -434 3 -14 17 -102 31 -195 30
-199 56 -365 84 -524 11 -63 22 -128 24 -145 3 -16 19 -117 37 -223 l33 -192
-21 -23 c-26 -28 -43 -95 -21 -82 8 5 20 17 28 28 20 29 29 10 43 -91 l12 -92
1068 0 1068 0 0 50 c0 50 -31 171 -74 290 -13 36 -36 108 -51 160 -15 52 -32
110 -37 128 -6 20 -23 42 -44 55 -18 12 -38 33 -43 47 -14 34 -63 215 -91 330
-12 52 -29 107 -36 122 -21 41 -64 163 -64 181 0 8 -5 17 -11 19 -6 2 -14 36
-17 77 -5 70 -7 75 -49 119 -27 29 -41 52 -37 62 12 32 16 258 5 334 -17 119
-55 174 -131 190 -14 3 -52 14 -85 25 -122 39 -447 113 -579 131 -133 18 -137
19 -253 81 -175 94 -232 120 -403 184 -85 32 -158 63 -162 68 -3 6 5 25 18 43
23 29 37 66 50 128 23 107 26 142 19 266 -10 173 -10 308 -3 490 9 192 9 297
2 340 -3 19 -23 72 -45 117 -21 46 -39 96 -39 113 0 34 -25 42 -35 11 -3 -12
-12 -18 -20 -15 -19 8 -29 59 -16 81 6 11 11 13 11 5 0 -7 4 -11 9 -8 13 8 3
36 -24 70 l-24 30 -7 -28 c-3 -15 -2 -38 4 -50 10 -23 5 -76 -7 -76 -4 0 -7
10 -6 23 0 37 -20 30 -26 -10 -6 -40 -10 -32 -14 27 -1 19 -5 57 -9 83 l-7 48
-35 -21 c-27 -17 -34 -19 -34 -7 0 23 -24 62 -37 62 -7 0 -12 2 -11 5 1 3 -4
15 -11 28 -13 24 -37 29 -44 10 -4 -10 -7 -10 -17 -1 -11 10 -10 14 3 19 9 3
17 15 17 25 0 21 12 24 41 9 10 -6 19 -7 19 -3 0 4 -17 17 -37 28 -24 13 -37
28 -38 43 -1 12 3 22 9 22 6 0 6 4 -1 11 -19 19 -45 -15 -41 -54 2 -17 -1 -33
-6 -34 -5 -1 -12 -7 -17 -14 -6 -10 -10 -10 -23 0 -8 7 -20 10 -26 6 -7 -5 -5
-12 7 -21 10 -7 15 -14 11 -14 -4 0 -20 12 -35 26 -47 44 -111 85 -118 75 -6
-11 -44 -9 -64 3 -7 4 -25 3 -41 -4 -23 -10 -35 -8 -71 10 -63 30 -98 32 -141
8z m-548 -138 c13 -8 12 -10 -2 -10 -10 0 -18 -6 -18 -13 0 -9 -12 -11 -40 -9
-22 2 -37 8 -34 13 3 5 16 6 29 3 13 -3 30 -2 37 3 8 5 -7 10 -42 14 l-55 6
55 1 c30 1 62 -3 70 -8z m505 -26 c-22 -8 -44 -19 -49 -24 -14 -14 -26 -12
-26 4 0 7 18 18 43 23 62 15 78 14 32 -3z m290 -2 c27 -8 24 -9 -35 -16 -36
-4 -94 -9 -130 -11 -67 -3 -67 -3 5 25 11 5 27 11 35 14 18 6 85 0 125 -12z
m260 -2 c3 -5 2 -10 -4 -10 -5 0 -13 5 -16 10 -3 6 -2 10 4 10 5 0 13 -4 16
-10z m-1129 -79 c-3 -4 -27 -16 -53 -26 -26 -10 -67 -29 -90 -41 -24 -12 -45
-19 -47 -16 -5 9 29 52 42 52 5 0 15 6 22 14 17 21 138 38 126 17z m455 -12
c18 -9 19 -17 13 -70 -7 -61 -1 -80 67 -211 13 -25 11 -41 -3 -32 -8 5 -9 2
-5 -9 4 -11 -1 -21 -14 -28 -12 -6 -33 -24 -47 -40 -39 -43 -87 -45 -130 -8
-42 37 -56 37 -96 -6 l-34 -35 -4 24 c-6 32 41 83 60 64 9 -9 13 -7 17 8 4 10
11 27 16 36 5 9 12 36 15 60 4 24 10 48 14 53 4 6 10 44 13 86 4 42 9 83 13
92 9 25 70 35 105 16z m-225 -60 c24 -6 44 -14 44 -17 0 -3 -8 -14 -17 -25
-11 -12 -18 -36 -19 -65 -1 -66 -1 -66 -29 -98 -14 -16 -25 -31 -25 -34 0 -11
-47 -33 -109 -51 -47 -14 -99 -19 -181 -20 -107 0 -116 2 -133 22 -10 12 -16
27 -14 33 2 6 -3 16 -11 22 -13 10 -12 14 11 34 16 14 23 26 17 30 -6 4 9 14
32 24 24 10 65 29 92 42 27 14 52 22 55 17 9 -13 91 -4 103 11 4 6 12 5 21 -3
11 -8 17 -9 22 -1 3 6 11 7 17 4 5 -3 26 1 46 9 21 8 46 18 57 22 19 6 18 8
-10 31 -34 27 -31 28 31 13z m549 -27 c0 -21 14 -23 50 -7 32 13 41 13 54 2 9
-8 24 -17 34 -20 9 -4 17 -11 17 -17 0 -5 14 -10 31 -10 41 0 33 -22 -11 -27
-48 -5 -50 -13 -4 -13 22 0 46 -6 53 -12 10 -9 12 -9 7 -1 -9 16 10 26 31 15
21 -11 46 -5 37 9 -3 5 5 9 18 9 l23 1 -24 20 c-32 26 -16 44 33 35 38 -7 49
-31 19 -39 -11 -3 -7 -5 10 -6 16 0 26 -5 23 -10 -3 -5 1 -11 9 -15 31 -11 10
-101 -34 -150 l-26 -28 -140 5 c-228 10 -309 31 -356 93 -15 19 -30 55 -34 79
-4 27 -11 45 -20 45 -7 0 -16 7 -19 16 -6 14 -4 15 10 3 14 -11 15 -10 12 7
-3 17 3 19 50 19 28 -1 52 2 52 5 0 3 21 5 48 4 26 -1 47 -7 47 -12z m-1015
-72 c0 -11 -7 -20 -15 -20 -17 0 -18 2 -9 24 9 23 24 20 24 -4z m523 -25 c-3
-9 -8 -14 -10 -11 -3 3 -2 9 2 15 9 16 15 13 8 -4z m1018 -92 c2 -21 1 -56 -2
-78 -5 -30 -7 -33 -8 -12 0 15 -5 27 -10 27 -14 0 -22 60 -11 81 16 29 28 23
31 -18z m171 -93 c-5 -48 -22 -43 -22 6 0 21 5 34 13 34 9 0 11 -12 9 -40z
m-23 -154 c0 -55 -34 -142 -58 -151 -8 -3 -19 -1 -25 5 -15 15 5 44 33 48 15
2 21 11 23 30 0 15 2 41 3 57 1 17 -2 41 -7 53 -11 32 1 50 18 27 8 -10 13
-41 13 -69z m-79 -1 c0 -14 -4 -25 -9 -25 -4 0 -6 11 -3 25 2 14 6 25 8 25 2
0 4 -11 4 -25z m110 -170 c-14 -68 -46 -139 -60 -130 -9 6 -14 -8 -11 -27 0
-5 -5 -8 -12 -8 -6 0 -22 -3 -34 -6 -21 -6 -23 -3 -23 30 0 22 4 35 10 31 6
-3 10 -1 10 5 0 6 5 8 11 5 6 -4 8 -13 5 -21 -3 -8 -1 -14 4 -14 6 0 10 15 10
33 0 20 10 47 25 67 14 19 25 41 25 50 0 9 7 32 16 49 9 18 18 47 19 64 5 62
9 61 13 -3 2 -36 -2 -92 -8 -125z m-860 45 c0 -5 -9 -10 -21 -10 -11 0 -17 5
-14 10 3 6 13 10 21 10 8 0 14 -4 14 -10z m-1033 -42 c-3 -7 -5 -2 -5 12 0 14
2 19 5 13 2 -7 2 -19 0 -25z m4 -89 c-9 -23 -9 -22 -8 8 1 18 6 28 10 24 4 -4
3 -18 -2 -32z m1445 12 c-9 -10 -16 -25 -16 -33 0 -9 -8 -26 -19 -39 l-18 -23
-7 39 c-5 26 -4 41 3 43 6 2 21 12 33 22 28 22 46 15 24 -9z m-1276 -25 c0 -3
-4 -8 -10 -11 -5 -3 -10 -1 -10 4 0 6 5 11 10 11 6 0 10 -2 10 -4z m42 -213
c-6 -2 -9 -10 -6 -15 4 -7 2 -8 -5 -4 -13 9 -5 26 12 25 9 0 8 -2 -1 -6z m95
-315 c-3 -8 -6 -5 -6 6 -1 11 2 17 5 13 3 -3 4 -12 1 -19z m793 -86 c0 -9 -32
-30 -67 -43 l-26 -10 29 29 c27 28 64 41 64 24z m-373 -18 c-3 -3 -12 -4 -19
-1 -8 3 -5 6 6 6 11 1 17 -2 13 -5z m53 -23 c0 -12 -20 -25 -27 -18 -7 7 6 27
18 27 5 0 9 -4 9 -9z m-233 -313 c12 -6 20 -15 17 -19 -4 -7 -74 27 -74 37 0
4 28 -5 57 -18z m68 -50 c32 -21 45 -38 28 -38 -11 1 -80 59 -70 60 4 0 23
-10 42 -22z"/>
<path d="M3018 4123 c-16 -2 -28 -9 -28 -14 0 -5 -7 -9 -15 -9 -8 0 -15 -4
-15 -10 0 -5 -15 -10 -32 -10 -18 0 -46 -9 -63 -20 l-30 -20 40 7 c46 7 115
34 115 45 0 5 6 8 13 8 7 0 22 7 33 15 10 8 17 14 14 13 -3 0 -17 -3 -32 -5z"/>
<path d="M3705 4120 c11 -5 29 -9 40 -9 l20 0 -20 9 c-11 5 -29 9 -40 9 l-20
0 20 -9z"/>
<path d="M2235 4561 c-3 -5 -1 -12 5 -16 5 -3 10 1 10 9 0 18 -6 21 -15 7z"/>
<path d="M4300 4564 c0 -2 7 -21 16 -43 11 -29 21 -39 37 -38 12 1 33 -3 47
-7 24 -8 23 -8 -5 16 -16 14 -37 28 -45 31 -9 3 -2 6 15 7 17 1 22 4 13 7 -9
2 -15 10 -12 18 4 9 -5 13 -30 13 -20 0 -36 -2 -36 -4z"/>
<path d="M4267 4512 c3 -12 9 -25 14 -28 14 -8 11 10 -6 32 -13 18 -14 18 -8
-4z"/>
<path d="M4230 4501 c0 -5 9 -19 20 -32 l21 -24 -16 33 c-15 31 -25 41 -25 23z"/>
<path d="M3111 4484 c0 -11 3 -14 6 -6 3 7 2 16 -1 19 -3 4 -6 -2 -5 -13z"/>
<path d="M4333 4452 c-3 -12 -9 -19 -14 -16 -11 7 -11 -2 0 -24 5 -9 13 -30
17 -46 5 -16 19 -35 32 -44 22 -15 22 -15 -3 29 -34 60 -32 79 5 41 17 -18 30
-28 30 -22 0 5 -4 12 -10 15 -5 3 -10 16 -10 29 0 13 -9 31 -20 41 -20 18 -21
18 -27 -3z"/>
<path d="M4275 4424 c4 -11 10 -29 12 -41 3 -13 12 -23 20 -23 10 0 13 6 9 16
-3 9 -6 22 -6 29 0 8 -10 19 -22 26 -19 10 -20 9 -13 -7z"/>
<path d="M2395 4389 c-4 -6 -5 -12 -2 -15 2 -3 7 2 10 11 7 17 1 20 -8 4z"/>
<path d="M4300 4334 c0 -10 5 -26 10 -34 8 -11 9 -7 4 15 -8 37 -14 45 -14 19z"/>
<path d="M2300 4085 c0 -29 -24 -33 -52 -9 -15 14 -20 15 -34 3 -18 -14 -15
-77 7 -165 13 -52 31 -49 54 9 l17 42 29 -33 c16 -18 29 -39 29 -47 0 -8 7
-15 15 -15 8 0 15 -9 15 -19 0 -10 -7 -21 -15 -25 -8 -3 -15 -15 -15 -26 0
-18 2 -19 13 -8 34 33 38 56 21 108 -9 28 -30 69 -47 93 -23 31 -30 51 -28 79
1 21 -1 38 -4 38 -3 0 -5 -11 -5 -25z"/>
<path d="M2242 3815 c2 -14 8 -26 13 -26 6 0 11 12 13 26 2 18 -1 25 -13 25
-12 0 -15 -7 -13 -25z"/>
<path d="M3001 3827 c-6 -8 -8 -17 -4 -20 3 -4 1 -7 -6 -7 -6 0 -16 -11 -21
-25 -5 -14 -16 -25 -25 -25 -8 0 -15 -4 -15 -10 0 -5 7 -10 16 -10 8 0 12 -4
9 -10 -11 -18 10 -11 27 9 9 11 14 28 11 39 -3 14 1 22 14 26 10 3 19 15 19
26 0 23 -9 26 -25 7z"/>
<path d="M2290 3810 c0 -5 5 -10 10 -10 6 0 10 5 10 10 0 6 -4 10 -10 10 -5 0
-10 -4 -10 -10z"/>
<path d="M3662 3800 c-10 -17 -10 -20 5 -19 10 0 27 4 38 9 19 8 19 9 -2 9
-12 1 -23 6 -25 11 -2 6 -9 1 -16 -10z"/>
<path d="M2677 3753 c-4 -3 -7 -13 -7 -22 1 -13 3 -13 11 2 11 19 8 33 -4 20z"/>
<path d="M2536 3680 c7 -39 11 -46 20 -37 4 4 -1 21 -10 39 l-17 33 7 -35z"/>
<path d="M2240 3676 c0 -8 5 -18 10 -21 6 -3 10 1 10 9 0 8 -4 18 -10 21 -5 3
-10 -1 -10 -9z"/>
<path d="M2330 3656 c0 -13 -3 -31 -6 -39 -6 -16 25 -32 37 -20 10 10 -11 83
-23 83 -4 0 -8 -11 -8 -24z"/>
<path d="M3610 3640 c0 -5 5 -10 11 -10 5 0 7 5 4 10 -3 6 -8 10 -11 10 -2 0
-4 -4 -4 -10z"/>
<path d="M2655 3620 c-10 -11 -14 -20 -8 -20 5 0 18 9 28 20 10 11 14 20 8 20
-5 0 -18 -9 -28 -20z"/>
<path d="M3635 3625 c-8 -12 -17 -13 -42 -6 -21 6 -35 6 -39 0 -3 -6 3 -13 14
-16 13 -3 18 -11 15 -23 -5 -19 -81 -26 -343 -34 -58 -2 -118 -8 -133 -15 -39
-15 -47 -14 -47 9 0 11 -7 20 -15 20 -8 0 -15 4 -15 10 0 5 -6 7 -14 4 -8 -3
-11 -15 -8 -30 2 -14 0 -24 -7 -24 -6 0 -11 10 -12 23 l-1 22 -6 -22 c-4 -12
-18 -34 -30 -49 -16 -17 -22 -34 -19 -51 3 -19 -1 -26 -19 -33 -20 -8 -24 -16
-24 -54 0 -38 4 -46 23 -52 12 -4 25 -11 28 -17 4 -5 10 0 14 12 4 14 15 21
31 21 13 0 24 -3 24 -7 0 -12 61 -44 71 -37 5 3 9 -3 9 -14 0 -18 36 -59 54
-62 9 -2 26 19 26 31 0 4 -9 9 -20 12 -22 6 -28 27 -7 27 6 -1 23 -7 35 -14
23 -12 23 -14 7 -30 -10 -9 -15 -20 -12 -23 3 -3 14 2 23 12 14 13 27 15 63
10 25 -4 48 -11 51 -15 3 -5 12 -5 20 0 8 5 22 4 33 -1 14 -8 23 -6 39 8 12
10 31 16 49 15 19 -2 31 2 35 12 3 9 13 16 21 16 13 0 13 -3 3 -15 -21 -26 15
-29 63 -6 50 24 63 26 71 9 3 -7 3 -2 0 11 -4 15 -2 21 4 17 13 -8 32 24 32
52 0 10 9 29 20 42 14 16 20 19 20 8 0 -11 8 -13 31 -10 20 3 29 9 25 18 -3 8
-1 14 4 14 6 0 10 7 10 16 0 8 -4 13 -9 10 -5 -3 -11 9 -14 27 -10 61 -13 67
-66 116 -29 27 -50 54 -46 60 10 17 -9 13 -20 -4z m-205 -191 c0 -22 -4 -24
-51 -24 -43 0 -50 3 -45 16 3 9 6 19 6 24 0 9 68 18 83 12 4 -2 7 -14 7 -28z
m-120 6 c6 -11 8 -25 5 -30 -9 -14 -79 -12 -93 2 -9 9 -12 9 -12 0 0 -17 -25
-15 -39 2 -10 12 -8 17 8 26 12 6 21 8 21 5 0 -3 8 -1 18 4 30 18 80 13 92 -9z
m190 -7 c0 -9 -3 -13 -7 -10 -3 4 -12 2 -19 -4 -16 -13 -34 -4 -34 17 0 9 11
14 30 14 21 0 30 -5 30 -17z m-270 -57 c0 -3 -4 -8 -10 -11 -5 -3 -10 -1 -10
4 0 6 5 11 10 11 6 0 10 -2 10 -4z m270 -43 c0 -12 6 -23 13 -26 6 -2 9 -8 5
-12 -5 -5 -18 0 -30 11 -12 10 -18 13 -14 7 4 -7 2 -13 -4 -13 -6 0 -9 -4 -5
-9 3 -6 -3 -10 -12 -10 -10 0 -38 -4 -62 -9 -48 -11 -170 -6 -216 7 -18 6 -23
10 -11 10 12 1 16 6 13 16 -13 32 63 50 210 50 109 0 113 -1 113 -22z"/>
<path d="M2780 3465 c0 -8 5 -15 10 -15 6 0 10 7 10 15 0 8 -4 15 -10 15 -5 0
-10 -7 -10 -15z"/>
<path d="M2781 3264 c0 -11 3 -14 6 -6 3 7 2 16 -1 19 -3 4 -6 -2 -5 -13z"/>
<path d="M3165 2980 c-3 -5 -1 -10 4 -10 6 0 11 5 11 10 0 6 -2 10 -4 10 -3 0
-8 -4 -11 -10z"/>
<path d="M3235 2216 c-55 -46 -120 -103 -145 -127 -44 -44 -168 -190 -185
-219 -11 -19 4 -8 88 64 56 46 111 75 149 76 9 0 27 15 39 33 12 17 23 33 25
35 1 2 18 -8 38 -22 59 -40 189 -180 227 -245 33 -56 35 -63 29 -118 -5 -36
-26 -101 -59 -173 -72 -162 -114 -342 -130 -556 -11 -144 -13 -564 -5 -786 l7
-178 444 0 c243 0 443 3 443 6 0 4 -7 48 -15 98 -8 50 -24 154 -35 231 -36
237 -80 504 -106 640 -50 255 -160 541 -257 671 -41 53 -46 67 -51 124 -3 43
0 75 9 95 13 30 25 89 26 133 1 12 3 22 6 22 16 0 150 -109 188 -153 61 -70
60 -36 -2 51 -98 136 -233 258 -386 347 -47 27 -48 27 -90 11 -24 -9 -50 -16
-60 -16 -9 0 -17 -3 -17 -7 0 -5 -16 -8 -35 -8 -19 0 -35 1 -35 3 0 13 33 32
57 33 l28 1 -25 8 c-51 16 -66 9 -165 -74z m295 44 c0 -5 -9 -10 -21 -10 -11
0 -17 5 -14 10 3 6 13 10 21 10 8 0 14 -4 14 -10z"/>
<path d="M2850 1780 c0 -11 4 -20 9 -20 5 0 7 9 4 20 -3 11 -7 20 -9 20 -2 0
-4 -9 -4 -20z"/>
<path d="M2850 1734 c0 -10 -6 -14 -15 -10 -9 3 -15 0 -15 -8 0 -19 26 -28 38
-13 11 15 12 47 0 47 -4 0 -8 -7 -8 -16z"/>
</g>
</svg>
